M48
; DRILL file {KiCad 7.0.9} date Fri Nov  1 10:27:33 2024
; FORMAT={-:-/ absolute / metric / decimal}
; #@! TF.CreationDate,2024-11-01T10:27:33+02:00
; #@! TF.GenerationSoftware,Kicad,Pcbnew,7.0.9
; #@! TF.FileFunction,MixedPlating,1,2
FMAT,2
METRIC
; #@! TA.AperFunction,Plated,PTH,ViaDrill
T1C0.800
; #@! TA.AperFunction,Plated,PTH,ComponentDrill
T2C0.800
; #@! TA.AperFunction,Plated,PTH,ComponentDrill
T3C1.000
; #@! TA.AperFunction,Plated,PTH,ComponentDrill
T4C1.000
; #@! TA.AperFunction,Plated,PTH,ComponentDrill
T5C1.400
; #@! TA.AperFunction,Plated,PTH,ComponentDrill
T6C1.500
; #@! TA.AperFunction,Plated,PTH,ComponentDrill
T7C1.600
; #@! TA.AperFunction,Plated,PTH,ComponentDrill
T8C2.200
%
G90
G05
T1
X81.337Y-117.837
X83.825Y-51.75
X144.05Y-153.95
X171.3Y-73.425
X200.919Y-59.695
X201.173Y-61.981
X201.427Y-64.267
X201.808Y-44.074
X201.815Y-46.089
T2
X85.877Y-77.74
X85.877Y-88.646
X85.877Y-98.806
X85.877Y-109.728
X96.037Y-77.74
X96.037Y-88.646
X96.037Y-98.806
X96.037Y-109.728
X104.728Y-77.74
X104.728Y-98.806
X104.728Y-109.728
X104.982Y-88.646
X114.888Y-77.74
X114.888Y-98.806
X114.888Y-109.728
X115.142Y-88.646
X123.103Y-94.504
X123.11Y-102.108
X123.183Y-77.74
X123.183Y-84.598
X126.826Y-125.73
X128.106Y-137.95
X128.106Y-140.49
X133.263Y-94.504
X133.27Y-102.108
X133.343Y-77.74
X133.343Y-84.598
X135.726Y-137.95
X135.726Y-140.49
X136.986Y-125.73
X138.075Y-84.598
X138.169Y-77.74
X138.677Y-94.504
X138.764Y-102.108
X148.235Y-84.598
X148.329Y-77.74
X148.837Y-94.504
X148.924Y-102.108
X150.257Y-89.528
X155.257Y-89.528
X159.512Y-81.788
X159.512Y-84.328
X159.512Y-86.868
X159.512Y-89.408
X159.512Y-91.948
X159.512Y-94.488
X159.512Y-97.028
X159.766Y-49.53
X159.766Y-52.07
X159.766Y-54.61
X159.766Y-57.15
X159.766Y-59.69
X159.766Y-62.23
X159.766Y-64.77
X159.766Y-67.31
X159.766Y-112.776
X159.766Y-115.316
X159.766Y-117.856
X159.766Y-120.396
X159.766Y-122.936
X159.766Y-125.476
X159.766Y-128.016
X159.766Y-130.556
X167.132Y-81.788
X167.132Y-84.328
X167.132Y-86.868
X167.132Y-89.408
X167.132Y-91.948
X167.132Y-94.488
X167.132Y-97.028
X167.386Y-49.53
X167.386Y-52.07
X167.386Y-54.61
X167.386Y-57.15
X167.386Y-59.69
X167.386Y-62.23
X167.386Y-64.77
X167.386Y-67.31
X167.386Y-112.776
X167.386Y-115.316
X167.386Y-117.856
X167.386Y-120.396
X167.386Y-122.936
X167.386Y-125.476
X167.386Y-128.016
X167.386Y-130.556
X174.578Y-77.74
X174.578Y-84.598
X174.578Y-94.504
X174.578Y-102.108
X182.118Y-117.602
X182.118Y-124.206
X182.118Y-146.05
X182.198Y-62.484
X182.292Y-133.858
X182.292Y-139.954
X182.372Y-55.626
X184.738Y-77.74
X184.738Y-84.598
X184.738Y-94.504
X184.738Y-102.108
X191.088Y-102.108
X191.262Y-77.74
X191.342Y-84.598
X191.342Y-94.504
X192.278Y-117.602
X192.278Y-124.206
X192.278Y-146.05
X192.358Y-62.484
X192.452Y-133.858
X192.452Y-139.954
X192.532Y-55.626
X201.248Y-102.108
X201.422Y-77.74
X201.502Y-84.598
X201.502Y-94.504
T3
X75.692Y-85.598
X75.692Y-88.138
X75.692Y-90.678
X75.692Y-93.218
X75.692Y-95.758
X75.692Y-98.298
X75.692Y-100.838
X75.692Y-103.378
X144.35Y-124.83
X144.35Y-128.83
X147.35Y-130.83
X150.35Y-124.83
X150.35Y-128.83
X163.457Y-138.948
X163.457Y-141.488
X163.457Y-144.028
X163.457Y-146.568
X203.962Y-119.136
X203.962Y-121.676
X203.962Y-124.216
X203.962Y-126.756
X203.975Y-138.785
X203.975Y-141.325
X203.975Y-143.865
X204.978Y-38.364
X204.978Y-40.904
X204.978Y-43.444
X204.978Y-45.984
X204.978Y-55.636
X204.978Y-58.176
X204.978Y-60.716
X204.978Y-63.256
T4
X144.83Y-140.241
X147.37Y-140.241
X149.91Y-140.241
T5
X103.632Y-125.984
X103.632Y-138.684
T6
X75.692Y-51.308
X75.692Y-56.388
X75.692Y-130.302
X75.692Y-135.382
T7
X117.905Y-149.65
X133.145Y-149.65
T8
X97.875Y-146.825
X109.2Y-118.475
T0
M30
